<svg xmlns="http://www.w3.org/2000/svg" width="93" height="48" viewBox="0 0 93 48">
  <svg x="8" y="16" width="20" height="20" viewBox="0 0 20 20" fill="none">
    <path d="M9.16663 4.99993H11.4107C11.5691 4.99993 11.7137 4.91021 11.784 4.76837L12.3492 3.62862C12.4351 3.45553 12.6277 3.36462 12.8134 3.41788C13.3595 3.5745 14.5057 3.95236 15.4202 4.58326C18.6401 6.99762 18.3398 12.408 18.3155 13.5507C18.314 13.6204 18.2962 13.6892 18.2618 13.7499C16.6092 16.6666 13.7425 16.6666 13.7425 16.6666L12.7706 14.6448M10.8333 4.99993H8.59324C8.43526 4.99993 8.29087 4.91059 8.22037 4.76922L7.65102 3.6276C7.56495 3.45502 7.37264 3.36452 7.18726 3.41767C6.64144 3.57416 5.49461 3.95207 4.57976 4.58326C1.3598 6.99762 1.66011 12.408 1.68446 13.5507C1.68595 13.6204 1.70376 13.6892 1.73815 13.7499C3.39074 16.6666 6.25743 16.6666 6.25743 16.6666L7.2324 14.6444M5.83436 14.1666C6.33408 14.3539 6.79635 14.5132 7.2324 14.6444M14.1698 14.1666C13.6697 14.3541 13.207 14.5135 12.7706 14.6448M7.2324 14.6444C9.26928 15.2572 10.734 15.2573 12.7706 14.6448M8.335 9.99993C8.335 10.4602 7.96181 10.8333 7.50145 10.8333C7.0411 10.8333 6.66791 10.4602 6.66791 9.99993C6.66791 9.53969 7.0411 9.16659 7.50145 9.16659C7.96181 9.16659 8.335 9.53969 8.335 9.99993ZM13.3363 9.99993C13.3363 10.4602 12.9631 10.8333 12.5027 10.8333C12.0424 10.8333 11.6692 10.4602 11.6692 9.99993C11.6692 9.53969 12.0424 9.16659 12.5027 9.16659C12.9631 9.16659 13.3363 9.53969 13.3363 9.99993Z" stroke="#A1A1AA" stroke-linecap="round" stroke-linejoin="round"/>
  </svg>
  <path d="M41.73 32L34.67 32Q34.67 30.89 34.99 30.03Q35.32 29.16 36.13 28.39Q36.95 27.63 38.41 26.86L38.41 26.86Q39.04 26.54 39.43 26.25Q39.82 25.95 40.01 25.62Q40.19 25.28 40.19 24.80L40.19 24.80Q40.19 24.31 39.99 23.96Q39.80 23.61 39.40 23.41Q39.01 23.21 38.42 23.21L38.42 23.21Q37.47 23.21 36.93 23.71Q36.39 24.22 36.25 25.15L36.25 25.15L34.73 25.06Q34.88 23.59 35.83 22.71Q36.79 21.84 38.42 21.84L38.42 21.84Q39.49 21.84 40.22 22.20Q40.96 22.56 41.34 23.22Q41.71 23.88 41.71 24.75L41.71 24.75Q41.71 25.52 41.46 26.08Q41.21 26.64 40.62 27.11Q40.03 27.59 39.01 28.14L39.01 28.14Q38.16 28.60 37.59 29.04Q37.02 29.48 36.74 29.88Q36.45 30.28 36.42 30.61L36.42 30.61L41.73 30.61L41.73 32ZM46.52 32.22L46.52 32.22Q44.88 32.22 44.01 31.44Q43.14 30.66 43.07 29.38L43.07 29.38L44.57 29.28Q44.65 30.14 45.19 30.50Q45.73 30.85 46.53 30.85L46.53 30.85Q47.08 30.85 47.55 30.68Q48.03 30.52 48.31 30.15Q48.60 29.79 48.60 29.17L48.60 29.17Q48.60 28.57 48.34 28.18Q48.08 27.79 47.61 27.60Q47.15 27.41 46.54 27.41L46.54 27.41L45.77 27.41L45.77 26.09L46.54 26.09Q47.02 26.09 47.41 25.95Q47.80 25.81 48.03 25.49Q48.27 25.17 48.27 24.66L48.27 24.66Q48.27 23.94 47.82 23.57Q47.38 23.21 46.57 23.21L46.57 23.21Q45.73 23.21 45.30 23.56Q44.88 23.91 44.78 24.52L44.78 24.52L43.27 24.43Q43.42 23.26 44.27 22.55Q45.12 21.84 46.59 21.84L46.59 21.84Q47.57 21.84 48.29 22.16Q49.01 22.49 49.40 23.10Q49.79 23.70 49.79 24.54L49.79 24.54Q49.79 25.46 49.21 26.03Q48.63 26.60 47.52 26.81L47.52 26.81L47.52 26.54Q48.73 26.68 49.43 27.40Q50.13 28.12 50.13 29.21L50.13 29.21Q50.13 30.17 49.67 30.84Q49.22 31.51 48.40 31.87Q47.58 32.22 46.52 32.22ZM55.03 34.18L54.22 34.18L54.89 32L54.08 32L54.08 30.15L55.92 30.15L55.92 31.80L55.03 34.18ZM64.49 32L63.02 32L63.02 24.92L60.47 24.92L60.47 23.67L61.73 23.67Q62.28 23.67 62.62 23.51Q62.95 23.35 63.11 23.00Q63.26 22.65 63.26 22.06L63.26 22.06L64.49 22.06L64.49 32ZM66.82 32L59.98 32L59.98 30.61L66.82 30.61L66.82 32ZM72.89 32L71.42 32L71.42 24.92L68.87 24.92L68.87 23.67L70.13 23.67Q70.68 23.67 71.02 23.51Q71.35 23.35 71.51 23.00Q71.66 22.65 71.66 22.06L71.66 22.06L72.89 22.06L72.89 32ZM75.22 32L68.38 32L68.38 30.61L75.22 30.61L75.22 32ZM80.20 32.22L80.20 32.22Q79.18 32.22 78.37 31.89Q77.57 31.55 77.11 30.89Q76.64 30.24 76.64 29.27L76.64 29.27Q76.64 28.19 77.30 27.48Q77.95 26.76 79.04 26.53L79.04 26.53L79.07 26.81Q78.18 26.58 77.64 26.04Q77.09 25.49 77.09 24.57L77.09 24.57Q77.09 23.78 77.49 23.17Q77.89 22.55 78.59 22.19Q79.29 21.84 80.20 21.84L80.20 21.84Q81.11 21.84 81.82 22.19Q82.52 22.55 82.92 23.17Q83.31 23.78 83.31 24.57L83.31 24.57Q83.31 25.49 82.77 26.04Q82.23 26.58 81.33 26.81L81.33 26.81L81.36 26.53Q82.45 26.78 83.11 27.48Q83.76 28.19 83.76 29.27L83.76 29.27Q83.76 30.24 83.29 30.89Q82.83 31.55 82.03 31.89Q81.24 32.22 80.20 32.22ZM80.20 30.85L80.20 30.85Q81.08 30.85 81.66 30.44Q82.23 30.03 82.23 29.16L82.23 29.16Q82.23 28.35 81.72 27.86Q81.21 27.38 80.20 27.38L80.20 27.38Q79.21 27.38 78.69 27.86Q78.17 28.35 78.17 29.16L78.17 29.16Q78.17 30.03 78.74 30.44Q79.32 30.85 80.20 30.85ZM80.20 26.06L80.20 26.06Q80.91 26.06 81.35 25.70Q81.78 25.34 81.78 24.61L81.78 24.61Q81.78 23.96 81.36 23.59Q80.93 23.21 80.20 23.21L80.20 23.21Q79.47 23.21 79.05 23.59Q78.62 23.96 78.62 24.61L78.62 24.61Q78.62 25.34 79.05 25.70Q79.49 26.06 80.20 26.06Z" fill="#A1A1AA"/>
</svg>