<svg xmlns="http://www.w3.org/2000/svg" width="320" height="180" viewBox="0 0 320 180"><rect width="100%" height="100%" fill="#111827"/><path fill="#FFFFFF" d="M66.885 95.04h2.75v-9.66h3.81v-2.24h-10.37v2.24h3.81Zm8.97-10.42c.99 0 1.65-.65 1.65-1.53 0-.82-.66-1.43-1.65-1.43-.98 0-1.65.65-1.65 1.48s.67 1.48 1.65 1.48m-1.32 10.42h2.65v-9.15h-2.65Zm11.93 0h3.21l-4.14-5.27 3.8-3.88h-3.16l-3.87 3.68v-7.14h-2.66v12.61h2.66v-2.33l1.27-1.26Zm6.9 0h2.76v-9.66h3.81v-2.24h-10.37v2.24h3.8Zm11.27.14c2.91 0 5.02-1.96 5.02-4.71 0-2.76-2.11-4.71-5.02-4.71-2.9 0-5.03 1.95-5.03 4.71 0 2.75 2.13 4.71 5.03 4.71m0-2.18c-1.32 0-2.34-.95-2.34-2.53s1.02-2.54 2.34-2.54c1.33 0 2.33.96 2.33 2.54s-1 2.53-2.33 2.53m13.6 2.04h3.22l-4.15-5.27 3.81-3.88h-3.16l-3.88 3.68v-7.14h-2.65v12.61h2.65v-2.33l1.27-1.26Zm9.41 3.3h2.43V82.43h-2.43Zm21.59-12.58c-1.38 0-2.57.56-3.3 1.49-.65-1-1.74-1.49-3.01-1.49-1.17 0-2.19.41-2.87 1.19v-1.06h-2.54v9.15h2.65v-4.59c0-1.63.84-2.4 2.01-2.4 1.11 0 1.73.68 1.73 2.16v4.83h2.66v-4.59c0-1.63.83-2.4 2.02-2.4 1.07 0 1.73.68 1.73 2.16v4.83h2.66V89.8c0-2.78-1.57-4.04-3.74-4.04m7.44-1.14c.99 0 1.65-.65 1.65-1.53 0-.82-.66-1.43-1.65-1.43-.98 0-1.65.65-1.65 1.48s.67 1.48 1.65 1.48m-1.32 10.42h2.65v-9.15h-2.65Zm5.11 0h2.65V82.43h-2.65Zm14.08-4.54c0-2.94-2.08-4.74-4.76-4.74-2.79 0-4.88 1.97-4.88 4.71 0 2.72 2.06 4.71 5.22 4.71 1.65 0 2.92-.51 3.77-1.48l-1.41-1.53c-.63.59-1.32.88-2.29.88-1.4 0-2.37-.7-2.62-1.84h6.92c.01-.22.05-.5.05-.71m-4.74-2.74c1.19 0 2.05.75 2.24 1.91h-4.51c.19-1.18 1.06-1.91 2.27-1.91m9.58 7.42c2.74 0 4.32-1.21 4.32-2.91 0-3.61-5.52-2.09-5.52-3.66 0-.47.51-.85 1.7-.85.83 0 1.73.17 2.63.68l.89-1.88c-.87-.51-2.27-.8-3.52-.8-2.67 0-4.24 1.22-4.24 2.96 0 3.65 5.53 2.12 5.53 3.62 0 .51-.46.83-1.68.83-1.13 0-2.37-.36-3.18-.88l-.89 1.9c.85.56 2.42.99 3.96.99m8.49-8.08v-1.21h-2.54v9.15h2.66v-4.32c0-1.75.96-2.55 2.43-2.55.2 0 .37.02.59.04v-2.45c-1.41 0-2.5.46-3.14 1.34m13.6 3.4c0-2.94-2.08-4.74-4.76-4.74-2.79 0-4.88 1.97-4.88 4.71 0 2.72 2.05 4.71 5.22 4.71 1.65 0 2.92-.51 3.77-1.48l-1.41-1.53c-.63.59-1.33.88-2.3.88-1.39 0-2.36-.7-2.61-1.84h6.92c.01-.22.05-.5.05-.71m-4.75-2.74c1.19 0 2.06.75 2.25 1.91h-4.51c.19-1.18 1.06-1.91 2.26-1.91m15.47 2.74c0-2.94-2.07-4.74-4.76-4.74-2.78 0-4.88 1.97-4.88 4.71 0 2.72 2.06 4.71 5.22 4.71 1.65 0 2.93-.51 3.78-1.48l-1.41-1.53c-.63.59-1.33.88-2.3.88-1.39 0-2.36-.7-2.62-1.84h6.92c.02-.22.05-.5.05-.71m-4.74-2.74c1.19 0 2.06.75 2.24 1.91h-4.5c.19-1.18 1.05-1.91 2.26-1.91m12.87-1.87-2.62 6.23-2.53-6.23h-2.74l3.84 9.15h2.74l3.86-9.15Zm12.34 4.61c0-2.94-2.07-4.74-4.76-4.74-2.79 0-4.88 1.97-4.88 4.71 0 2.72 2.06 4.71 5.22 4.71 1.65 0 2.93-.51 3.78-1.48l-1.42-1.53c-.62.59-1.32.88-2.29.88-1.39 0-2.36-.7-2.62-1.84h6.92c.02-.22.05-.5.05-.71m-4.74-2.74c1.19 0 2.06.75 2.24 1.91h-4.5c.18-1.18 1.05-1.91 2.26-1.91m9.59 7.42c2.73 0 4.31-1.21 4.31-2.91 0-3.61-5.52-2.09-5.52-3.66 0-.47.51-.85 1.7-.85.83 0 1.73.17 2.63.68l.89-1.88c-.87-.51-2.26-.8-3.52-.8-2.67 0-4.23 1.22-4.23 2.96 0 3.65 5.52 2.12 5.52 3.62 0 .51-.46.83-1.68.83-1.12 0-2.36-.36-3.18-.88l-.88 1.9c.85.56 2.41.99 3.96.99m9.64-9.42c-1.47 0-2.95.39-3.95 1.1l.95 1.86c.67-.53 1.67-.85 2.64-.85 1.43 0 2.11.66 2.11 1.8h-2.11c-2.79 0-3.93 1.12-3.93 2.73 0 1.59 1.28 2.78 3.42 2.78 1.34 0 2.29-.45 2.79-1.28v1.14h2.48v-5.22c0-2.77-1.62-4.06-4.4-4.06m-.21 7.63c-.93 0-1.49-.44-1.49-1.1 0-.62.39-1.08 1.63-1.08h1.82v.94c-.31.83-1.07 1.24-1.96 1.24m8.33-8.77c.99 0 1.65-.65 1.65-1.53 0-.82-.66-1.43-1.65-1.43-.98 0-1.65.65-1.65 1.48s.67 1.48 1.65 1.48m-1.32 10.42h2.65v-9.15h-2.65Z"/></svg>